<?xml version="1.0" encoding="UTF-8" standalone="no"?>
<svg width="81" height="31" viewBox="0 0 81 31" fill="none" xmlns="http://www.w3.org/2000/svg">
<g clip-path="url(#clip0_35_11)">
<mask id="mask0_35_11" style="mask-type:luminance" maskUnits="userSpaceOnUse" x="0" y="0" width="26" height="31">
<path fill-rule="evenodd" clip-rule="evenodd" d="M8.38325 0.53418C7.44828 0.53418 6.69035 1.29212 6.69035 2.22709V2.50923C6.69035 3.31088 7.24753 3.98238 7.99576 4.15759V7.36388C3.30246 9.16257 0 13.4491 0 18.4508C0 25.0735 5.78983 30.4422 12.9319 30.4422C20.0741 30.4422 25.8638 25.0735 25.8638 18.4508C25.8638 13.3625 22.4462 9.01448 17.6232 7.2728V4.1576C18.3715 3.9824 18.9288 3.31089 18.9288 2.50923V2.22708C18.9288 1.29212 18.1708 0.53418 17.2358 0.53418H8.38325Z" fill="white"/>
</mask>
<g mask="url(#mask0_35_11)">
<path d="M7.99581 4.15763H9.80688V2.72166L8.40873 2.39426L7.99581 4.15763ZM7.99581 7.36393L8.64392 9.05507L9.80688 8.60937V7.36393H7.99581ZM17.6233 7.27284H15.8124V8.54436L17.0082 8.97624L17.6233 7.27284ZM17.6233 4.15765L17.2105 2.39426L15.8124 2.72165V4.15765H17.6233ZM8.50146 2.22714C8.50146 2.29239 8.44856 2.34531 8.38329 2.34531V-1.27686C6.4481 -1.27686 4.87931 0.291939 4.87931 2.22714H8.50146ZM8.50146 2.50928V2.22714H4.87931V2.50928H8.50146ZM8.40873 2.39426C8.43908 2.40138 8.46091 2.41731 8.47472 2.4345C8.49069 2.45439 8.50146 2.48306 8.50146 2.50928H4.87931C4.87931 4.17087 6.03409 5.55834 7.58288 5.92101L8.40873 2.39426ZM6.18473 4.15763V7.36393H9.80688V4.15763H6.18473ZM7.3477 5.6728C2.0417 7.70629 -1.81104 12.6091 -1.81104 18.4508H1.81113C1.81113 14.2891 4.56331 10.6189 8.64392 9.05507L7.3477 5.6728ZM-1.81104 18.4508C-1.81104 26.2 4.92085 32.2533 12.932 32.2533V28.6312C6.6589 28.6312 1.81113 23.9469 1.81113 18.4508H-1.81104ZM12.932 32.2533C20.9432 32.2533 27.675 26.2 27.675 18.4508H24.0528C24.0528 23.9469 19.205 28.6312 12.932 28.6312V32.2533ZM27.675 18.4508C27.675 12.5074 23.6884 7.53756 18.2385 5.56943L17.0082 8.97624C21.204 10.4915 24.0528 14.2177 24.0528 18.4508H27.675ZM19.4344 7.27284V4.15765H15.8124V7.27284H19.4344ZM17.1177 2.50928C17.1177 2.48306 17.1285 2.45439 17.1445 2.4345C17.1583 2.41731 17.1801 2.40138 17.2105 2.39426L18.0362 5.92102C19.585 5.55837 20.7399 4.17088 20.7399 2.50928H17.1177ZM17.1177 2.22713V2.50928H20.7399V2.22713H17.1177ZM17.2359 2.34531C17.1706 2.34531 17.1177 2.29239 17.1177 2.22713H20.7399C20.7399 0.291934 19.1711 -1.27686 17.2359 -1.27686V2.34531ZM8.38329 2.34531H17.2359V-1.27686H8.38329V2.34531Z" fill="white"/>
</g>
<path fill-rule="evenodd" clip-rule="evenodd" d="M21.9137 17.5599C22.1958 23.0592 17.9135 26.749 12.9789 26.749C8.04436 26.749 3.95007 23.3414 3.95007 17.5599C3.95007 14.8901 4.6146 15.4449 5.96285 16.5706C7.17756 17.5845 8.94728 19.062 11.286 19.062C13.3377 19.062 15.5205 17.925 17.3707 16.9612C19.9705 15.6071 21.9137 14.5949 21.9137 17.5599ZM17.254 22.4953C16.8787 23.5844 16.0644 24.3305 15.4351 24.1619C14.8058 23.9932 14.5998 22.9737 14.975 21.8846C15.3502 20.7956 16.1646 20.0494 16.7939 20.2181C17.4232 20.3868 17.6292 21.4063 17.254 22.4953ZM9.98294 24.1366C10.6314 23.963 10.8215 22.949 10.4076 21.8722C9.99369 20.7952 9.13254 20.0631 8.48414 20.2367C7.83573 20.4105 7.64562 21.4243 8.0595 22.5013C8.47338 23.5783 9.33453 24.3104 9.98294 24.1366Z" fill="white"/>
<path d="M72.4712 20.3992V10.4771H77.2563C78.3259 10.4771 79.1516 10.7116 79.7332 11.1807C80.3244 11.6405 80.62 12.2598 80.62 13.0385C80.62 13.5546 80.4886 14.0049 80.2259 14.3896C79.9726 14.7743 79.6161 15.0605 79.1563 15.2481C79.7098 15.417 80.1367 15.7031 80.437 16.1066C80.7373 16.5007 80.8874 16.9933 80.8874 17.5844C80.8874 18.457 80.573 19.1466 79.9445 19.6533C79.3251 20.1506 78.476 20.3992 77.397 20.3992H72.4712ZM74.9481 14.4178H76.7919C77.261 14.4178 77.6034 14.3333 77.8192 14.1644C78.0444 13.9955 78.1571 13.7375 78.1571 13.3904C78.1571 13.0432 78.0444 12.7899 77.8192 12.6304C77.6034 12.4615 77.261 12.377 76.7919 12.377H74.9481V14.4178ZM74.9481 18.4993H77.0452C77.5237 18.4993 77.8708 18.41 78.0866 18.2319C78.3118 18.0442 78.4245 17.7673 78.4245 17.4014C78.4245 17.0355 78.3118 16.7634 78.0866 16.5852C77.8708 16.4069 77.5237 16.3178 77.0452 16.3178H74.9481V18.4993Z" fill="white"/>
<path d="M59.9731 20.3992L64.6177 10.4771H66.6583L71.3028 20.3992H68.7132L67.8547 18.3866H63.4214L62.5629 20.3992H59.9731ZM65.6169 13.1793L64.2657 16.4022H66.9962L65.645 13.1793H65.6169Z" fill="white"/>
<path d="M52.0675 20.3991V10.4771H54.6571V18.2459H59.0763V20.3991H52.0675Z" fill="white"/>
<path d="M45.6418 20.5541C44.6379 20.5541 43.756 20.3429 42.9959 19.9207C42.2454 19.4892 41.6589 18.8885 41.2368 18.1193C40.8145 17.3498 40.6034 16.4539 40.6034 15.4311C40.6034 14.399 40.8098 13.503 41.2226 12.743C41.6449 11.9736 42.236 11.3778 42.9959 10.9556C43.756 10.5334 44.6379 10.3223 45.6418 10.3223C46.6458 10.3223 47.5231 10.5334 48.2737 10.9556C49.0338 11.3778 49.6247 11.9736 50.0471 12.743C50.4692 13.503 50.6803 14.399 50.6803 15.4311C50.6803 16.4539 50.4692 17.3498 50.0471 18.1193C49.6247 18.8885 49.0338 19.4892 48.2737 19.9207C47.5231 20.3429 46.6458 20.5541 45.6418 20.5541ZM45.6418 18.3867C46.3737 18.3867 46.9461 18.1286 47.3589 17.6125C47.7812 17.0871 47.9923 16.36 47.9923 15.4311C47.9923 14.5022 47.7859 13.7798 47.3729 13.2637C46.9601 12.7477 46.383 12.4897 45.6418 12.4897C44.9007 12.4897 44.3236 12.7477 43.9108 13.2637C43.498 13.7798 43.2916 14.5022 43.2916 15.4311C43.2916 16.36 43.498 17.0871 43.9108 17.6125C44.3236 18.1286 44.9007 18.3867 45.6418 18.3867Z" fill="white"/>
<path d="M31.0665 20.3991V10.4771H33.6561V14.7274H33.6843L37.5406 10.4771H40.6086L36.1894 15.1919L40.7635 20.3991H37.6813L33.6843 15.9237H33.6561V20.3991H31.0665Z" fill="white"/>
</g>
<defs>
<clipPath id="clip0_35_11">
<rect width="81" height="29.9317" fill="white" transform="translate(0 0.53418)"/>
</clipPath>
</defs>
</svg>
